<svg xmlns="http://www.w3.org/2000/svg" width="700" height="900" viewBox="0 0 700 900" role="img" aria-label="Aftergraph stacked lockup"><rect width="700" height="900" fill="#080C14"/><g transform="translate(222 80)"><path d="M128 24 218 76v104l-90 52-90-52V76z" fill="none" stroke="#42C7E8" stroke-width="10"/><g stroke="#F5F7FA" stroke-width="6" fill="none"><path d="M78 92 128 62l50 30v72l-50 30-50-30z"/><path d="M128 62v132"/></g><g fill="#F5F7FA"><circle cx="128" cy="62" r="10"/><circle cx="78" cy="92" r="10"/><circle cx="178" cy="92" r="10"/><circle cx="78" cy="164" r="10"/><circle cx="178" cy="164" r="10"/><circle cx="128" cy="194" r="10"/></g><path d="m128 101 27 27-27 27-27-27z" fill="#42C7E8"/></g><text x="350" y="500" text-anchor="middle" fill="#F5F7FA" font-family="Inter,system-ui,sans-serif" font-size="72" font-weight="760">Aftergraph</text><text x="350" y="560" text-anchor="middle" fill="#8993A4" font-family="Inter,system-ui,sans-serif" font-size="26">Provisional home of ABDE Intelligence</text><line x1="120" y1="625" x2="580" y2="625" stroke="#42C7E8"/><text x="350" y="690" text-anchor="middle" fill="#42C7E8" font-family="Inter,system-ui,sans-serif" font-size="16" letter-spacing="4">GRAPHS • BOUNDARIES • GOVERNANCE • VERIFIED OUTCOMES</text></svg>